<?xml version="1.0" encoding="UTF-8"?>
<svg version="1.1" xmlns="http://www.w3.org/2000/svg" width="192" height="128">
<path d="M0 0 C63.36 0 126.72 0 192 0 C192 42.24 192 84.48 192 128 C128.64 128 65.28 128 0 128 C0 85.76 0 43.52 0 0 Z " fill="#FFFF00" transform="translate(0,0)"/>
<path d="M0 0 C21.12 0 42.24 0 64 0 C64 42.24 64 84.48 64 128 C42.88 128 21.76 128 0 128 C0 85.76 0 43.52 0 0 Z " fill="#000000" transform="translate(128,0)"/>
<path d="M0 0 C21.12 0 42.24 0 64 0 C64 21.12 64 42.24 64 64 C42.88 64 21.76 64 0 64 C0 42.88 0 21.76 0 0 Z " fill="#FFFFFF" transform="translate(64,64)"/>
<path d="M0 0 C21.12 0 42.24 0 64 0 C64 21.12 64 42.24 64 64 C42.88 64 21.76 64 0 64 C0 42.88 0 21.76 0 0 Z " fill="#0000FF" transform="translate(128,0)"/>
<path d="M0 0 C21.12 0 42.24 0 64 0 C64 21.12 64 42.24 64 64 C42.88 64 21.76 64 0 64 C0 42.88 0 21.76 0 0 Z " fill="#00FF00" transform="translate(64,0)"/>
<path d="M0 0 C21.12 0 42.24 0 64 0 C64 21.12 64 42.24 64 64 C42.88 64 21.76 64 0 64 C0 42.88 0 21.76 0 0 Z " fill="#FF0000" transform="translate(0,0)"/>
</svg>
